<svg xmlns="http://www.w3.org/2000/svg" xmlns:xlink="http://www.w3.org/1999/xlink">
    <g id="product-a8f3bcfc-63b2-45c0-902d-c368556386c0">
        <g id="product-4">
            <path style="stroke:black; fill:none;" d="M-0.781915,-0.420213 L-0.781915,-1 L-1.21277,-1 L-1.21277,-0.420213 L-0.781915,-0.420213"/>
        </g>
        <g id="product-3">
            <path style="stroke:black; fill:none;" d="M-0.397872,-0.605319 L-0.397872,-1 L-0.756383,-1 L-0.756383,-0.605319 L-0.397872,-0.605319"/>
        </g>
        <g id="product-2">
            <path style="stroke:black; fill:none;" d="M-1.11022e-16,-0.605319 L-1.11022e-16,-1 L-0.37234,-1 L-0.37234,-0.605319 L-1.17961e-16,-0.605319"/>
        </g>
        <g id="product-5">
            <path style="stroke:black; fill:none;" d="M-1.21277,-0.394681 L-1.21277,-6.93889e-17 L-0.467553,-6.245e-17 L-0.467553,-0.394681 L-0.756383,-0.394681 L-1.21277,-0.394681"/>
        </g>
        <g id="product-1">
            <path style="stroke:black; fill:none;" d="M-0.756383,-0.579787 L-0.756383,-0.394681 L-0.37234,-0.394681 L-0.37234,-0.420213 L-1.17961e-16,-0.420213 L-1.11022e-16,-0.579787 L-0.756383,-0.579787"/>
        </g>
        <g id="product-6">
            <path style="stroke:black; fill:none;" d="M-1.11022e-16,-4.85723e-17 L-1.11022e-16,-0.394681 L-0.37234,-0.394681 L-0.467553,-0.394681 L-0.467553,-4.85723e-17 L-1.17961e-16,0"/>
        </g>
    </g>
    <g id="product-870ea0fa-d15f-4dde-9892-bc7d34baa998">
        <g id="product-7">
            <path style="stroke:black; fill:none;" d="M0,-0.939785 L-1.21277,-0.939785 L-1.21277,-0.0602155 L0,-0.0602155 L0,-0.939785"/>
        </g>
    </g>
</svg>
